<?xml version="1.0" encoding="UTF-8"?>
<svg width="500px" height="512px" viewBox="0 0 500 512" version="1.1" xmlns="http://www.w3.org/2000/svg" xmlns:xlink="http://www.w3.org/1999/xlink">
    <!-- Generator: Sketch 52.2 (67145) - http://www.bohemiancoding.com/sketch -->
    <title>Untitled</title>
    <desc>Created with Sketch.</desc>
    <g id="Page-1" stroke="none" stroke-width="1" fill="none" fill-rule="evenodd">
        <g id="jukebox" fill="#FFFFFF">
            <path d="M66.205,0 L66.205,145.556 C62.036,144.809 57.643,144.41 53.077,144.41 C23.139,144.41 0.564,161.341 0.564,183.795 C0.564,206.248 23.139,223.18 53.077,223.18 C83.015,223.18 105.59,206.249 105.59,183.795 L105.59,39.385 L138.411,39.385 L138.411,0 L66.205,0 Z" id="Path"></path>
            <path d="M223.744,459.487 L144.975,459.487 C123.313,459.487 105.59,477.21 105.59,498.872 L105.59,512 L263.129,512 L263.129,498.872 C263.128,477.21 245.405,459.487 223.744,459.487 Z" id="Path"></path>
            <path d="M460.051,459.487 L381.282,459.487 C359.621,459.487 341.897,477.21 341.897,498.872 L341.897,512 L499.435,512 L499.435,498.872 C499.436,477.21 481.713,459.487 460.051,459.487 Z" id="Path"></path>
            <rect id="Rectangle" x="144.974" y="249.436" width="78.769" height="170.667"></rect>
            <rect id="Rectangle" x="381.282" y="249.436" width="78.769" height="170.667"></rect>
            <path d="M302.513,65.633 C219.926,65.633 152.191,129.184 145.523,210.051 L224.853,210.051 C231.102,172.797 263.483,144.402 302.514,144.402 C341.545,144.402 373.925,172.796 380.175,210.051 L459.502,210.051 C452.835,129.184 385.1,65.633 302.513,65.633 Z" id="Path"></path>
            <path d="M263.128,288.82 L263.128,430.7 C279.206,440.025 291.703,454.865 298.004,472.616 L307.022,472.616 C313.324,454.865 325.819,440.025 341.898,430.7 L341.898,288.82 L263.128,288.82 Z" id="Path"></path>
            <path d="M302.513,183.795 C280.761,183.795 263.128,201.429 263.128,223.18 L263.128,249.436 L341.897,249.436 L341.897,223.18 C341.897,201.429 324.265,183.795 302.513,183.795 Z" id="Path"></path>
        </g>
    </g>
</svg>